PathFileType	4	(X/Y/Z)	D:\TRACE\v60_Jaco2_6-2-23\BothDRS_Motion1_4-platform.trc
DataRate	CameraRate	NumFrames	NumMarkers	Units	OrigDataRate	OrigDataStartFrame	OrigNumFrames
100.00	100.00	      75	5	mm	100.00	1	      6979
Frame#	Time	Left_Front			Right_Front			Left_Aft			Right_Aft			Post			
		X1	Y1	Z1	X2	Y2	Z2	X3	Y3	Z3	X4	Y4	Z4	X5	Y5	Z5	

1	0.000	-800.57410	8.78754	-638.95081	769.46582	10.01466	-644.21655	-708.76019	7.95766	495.99457	733.36346	7.15779	505.93237	-14.22813	1307.75842	-962.33911	
2	0.010	-800.55750	8.71204	-639.00726	769.67419	10.02936	-644.09186	-708.73920	7.97935	496.00031	733.44781	7.17479	505.91058	-14.20677	1307.72095	-962.32593	
3	0.020	-800.61267	8.75424	-638.93640	769.65912	10.02343	-644.14288	-708.71771	7.98599	496.02692	733.43335	7.17883	505.91104	-14.22653	1307.73975	-962.35980	
4	0.030	-800.60278	8.68497	-638.92560	769.48877	10.02965	-644.16364	-708.73181	7.98450	496.05777	733.42322	7.12048	505.95007	-14.23493	1307.71301	-962.32861	
5	0.040	-800.59393	8.67859	-638.95404	769.49005	10.02223	-644.16901	-708.75140	7.96186	496.02039	733.40515	7.12184	505.94977	-14.20115	1307.73254	-962.32959	
6	0.050	-800.60992	8.66724	-638.94299	769.64813	10.00656	-644.12024	-708.74670	7.94544	496.00577	733.38641	7.12058	505.91809	-14.25290	1307.74536	-962.33215	
7	0.060	-800.60242	8.71006	-638.91949	769.64557	10.02082	-644.10577	-708.78369	7.97215	496.01358	733.45477	7.15014	505.89261	-14.17141	1307.74329	-962.34460	
8	0.070	-800.61017	8.72122	-638.96973	769.59723	10.01310	-644.14026	-708.78015	7.95230	495.98538	733.42450	7.13363	505.90979	-14.16298	1307.69458	-962.35938	
9	0.080	-800.63275	8.68977	-638.90259	769.53674	10.01066	-644.15356	-708.76617	7.95654	496.02362	733.41394	7.15436	505.92920	-14.21007	1307.72937	-962.32910	
10	0.090	-800.62769	8.75880	-638.93512	769.62256	10.01431	-644.13007	-708.76154	7.97105	496.01059	733.45532	7.15995	505.91785	-14.20196	1307.69800	-962.37927	
11	0.100	-800.58252	8.70333	-638.95026	769.61237	10.00350	-644.11798	-708.79504	7.98884	496.00687	733.44379	7.13381	505.90344	-14.25954	1307.71912	-962.32770	
12	0.110	-800.56592	8.70339	-638.99756	769.67175	10.02140	-644.10242	-708.69440	7.93995	495.98151	733.46039	7.18453	505.86838	-14.18554	1307.72058	-962.35272	
13	0.120	-800.55701	8.73730	-638.98749	769.61597	10.00664	-644.10040	-708.75385	7.95188	496.02322	733.53192	7.18410	505.90497	-14.23650	1307.74219	-962.33472	
14	0.130	-800.58685	8.73516	-638.93365	769.64380	10.00988	-644.12115	-708.71344	7.95789	496.01501	733.44434	7.16749	505.91983	-14.16928	1307.74988	-962.35223	
15	0.140	-800.55994	8.67803	-638.98553	769.61615	9.98185	-644.12701	-708.77917	7.99000	496.02826	733.42743	7.14119	505.89420	-14.22444	1307.76074	-962.34949	
16	0.150	-800.61920	8.75611	-638.92010	769.60547	10.01491	-644.12708	-708.78412	7.99472	495.98517	733.63196	7.09416	505.76617	-14.17138	1307.74219	-962.33112	
17	0.160	-800.55688	8.71518	-638.94574	769.47949	10.05806	-644.17456	-708.77808	8.00722	496.01071	733.43536	7.17504	505.88727	-14.22564	1307.73926	-962.31946	
18	0.170	-800.53278	8.67993	-638.98407	769.47577	10.03767	-644.17377	-708.73145	7.95563	496.02982	733.42169	7.14226	505.90063	-14.22766	1307.70435	-962.31573	
19	0.180	-800.60938	8.75825	-638.96033	769.64606	10.00468	-644.07837	-708.75476	7.94259	496.01517	733.36096	7.11258	505.92227	-14.24521	1307.70691	-962.35541	
20	0.190	-800.57983	8.68252	-638.92096	769.63739	10.02016	-644.10760	-708.74304	7.92895	496.01508	733.49512	7.16846	505.89282	-14.20463	1307.68445	-962.37885	
21	0.200	-800.57751	8.70933	-638.94720	769.46033	10.03081	-644.20544	-708.74048	7.91772	496.02216	733.39630	7.14159	505.92273	-14.20833	1307.70386	-962.32990	
22	0.210	-800.57562	8.70853	-638.99463	769.63739	10.01368	-644.11212	-708.72894	7.94326	496.00726	733.40784	7.14828	505.90121	-14.18678	1307.73438	-962.32947	
23	0.220	-800.55908	8.74015	-638.96460	769.51404	10.05475	-644.16309	-708.77411	8.00677	496.00238	733.44055	7.15439	505.89276	-14.15531	1307.75378	-962.32788	
24	0.230	-800.60382	8.76426	-638.97089	769.49457	10.04720	-644.16815	-708.74670	7.96921	496.00818	733.44037	7.15870	505.92468	-14.23140	1307.74634	-962.34406	
25	0.240	-800.58411	8.72385	-638.96814	769.67151	10.02255	-644.09198	-708.75128	7.98337	496.01465	733.36664	7.10202	505.88965	-14.13512	1307.69897	-962.34021	
26	0.250	-800.56555	8.69685	-639.03528	769.49634	10.02798	-644.18976	-708.74536	7.96751	496.00531	733.38837	7.11153	505.90195	-14.26745	1307.73877	-962.34412	
27	0.260	-800.57257	8.69838	-638.99719	769.64203	10.00952	-644.07385	-708.77771	7.96752	495.99667	733.45758	7.12851	505.89072	-14.25391	1307.73743	-962.32245	
28	0.270	-800.56934	8.69962	-638.99963	769.69159	10.01999	-644.07312	-708.74683	7.98206	495.98706	733.44580	7.18189	505.91306	-14.20468	1307.72021	-962.34021	
29	0.280	-800.55530	8.66158	-638.97388	769.59460	10.00022	-644.12769	-708.75690	7.94480	495.99054	733.40051	7.14131	505.90918	-14.20606	1307.75574	-962.34143	
30	0.290	-800.55963	8.69657	-638.98065	769.56635	10.00281	-644.17505	-708.76910	7.99046	496.00488	733.40210	7.15890	505.92712	-14.27177	1307.74048	-962.33771	
31	0.300	-800.58527	8.71649	-638.98553	769.55225	9.98595	-644.15521	-708.77618	7.96565	495.99103	733.38739	7.10195	505.92303	-14.27332	1307.74744	-962.34033	
32	0.310	-800.57941	8.75034	-638.97565	769.63763	9.98409	-644.09198	-708.77722	8.00029	496.00525	733.40802	7.14836	505.90836	-14.18095	1307.71777	-962.34753	
33	0.320	-800.57587	8.68591	-638.98468	769.63483	9.97954	-644.15363	-708.72937	7.99675	495.97720	733.42719	7.16225	505.90286	-14.12835	1307.74377	-962.36456	
34	0.330	-800.56952	8.75748	-638.98578	769.57281	9.99625	-644.16083	-708.73834	7.93878	496.01468	733.39935	7.13331	505.89780	-14.17505	1307.73682	-962.32751	
35	0.340	-800.60205	8.73127	-638.98364	769.59711	9.99346	-644.16254	-708.71204	7.96006	496.03711	733.51489	7.15080	505.91571	-14.26084	1307.71851	-962.32898	
36	0.350	-800.56274	8.66446	-638.96765	769.56738	9.99170	-644.13257	-708.74585	7.96563	495.99963	733.40332	7.13078	505.91394	-14.20325	1307.70837	-962.34558	
37	0.360	-800.59589	8.71443	-638.99298	769.50970	10.00101	-644.18787	-708.77728	7.96914	495.99530	733.35950	7.12348	505.92368	-14.21300	1307.72290	-962.37000	
38	0.370	-800.54425	8.68614	-639.03754	769.66315	10.03712	-644.07184	-708.76294	7.97338	496.00015	733.35895	7.09945	505.92676	-14.18612	1307.72620	-962.33862	
39	0.380	-800.58820	8.75648	-638.99451	769.61444	10.00299	-644.11798	-708.70905	7.94041	496.00391	733.46326	7.16270	505.91882	-14.15146	1307.73657	-962.35571	
40	0.390	-800.59033	8.77025	-638.96979	769.45062	10.03324	-644.15991	-708.75232	7.95836	495.99738	733.42993	7.14580	505.93518	-14.16450	1307.72498	-962.33496	
41	0.400	-800.57672	8.70369	-638.98651	769.67188	10.02678	-644.07074	-708.73236	7.94468	496.01926	733.45007	7.11709	505.89975	-14.14503	1307.72974	-962.34698	
42	0.410	-800.57660	8.70409	-638.93286	769.65161	10.00961	-644.10992	-708.76495	7.96128	496.00558	733.37946	7.09093	505.93039	-14.18571	1307.71936	-962.34467	
43	0.420	-800.55859	8.72042	-638.95422	769.71820	10.01286	-644.08179	-708.74756	7.94637	495.99298	733.47314	7.17004	505.92850	-14.17426	1307.71851	-962.33667	
44	0.430	-800.59845	8.73797	-638.98077	769.52185	10.03076	-644.16730	-708.74249	7.96727	495.96811	733.46753	7.17163	505.88736	-14.24881	1307.73279	-962.34998	
45	0.440	-800.56903	8.75178	-638.90503	769.62988	10.01315	-644.12170	-708.76782	7.95810	495.97504	733.42993	7.12658	505.89731	-14.28455	1307.74963	-962.31177	
46	0.450	-800.56000	8.71879	-638.98926	769.65948	9.98512	-644.10919	-708.76001	7.97621	495.99353	733.66034	7.11654	505.76941	-14.16737	1307.74438	-962.32733	
47	0.460	-800.59644	8.70514	-639.00415	769.46039	10.03304	-644.18573	-708.80597	7.99596	496.00003	733.37219	7.14996	505.90164	-14.20661	1307.72620	-962.37134	
48	0.470	-800.57410	8.70531	-638.96619	769.66638	10.02106	-644.10675	-708.77386	7.98066	495.99426	733.43884	7.15453	505.91772	-14.19759	1307.72510	-962.33258	
49	0.480	-800.58307	8.76517	-638.98920	769.53796	10.04609	-644.15894	-708.76166	7.99076	496.00296	733.46155	7.14550	505.87634	-14.21551	1307.75977	-962.33563	
50	0.490	-800.57703	8.71291	-639.01733	769.58618	10.00549	-644.13245	-708.74915	7.98005	496.03381	733.42877	7.15397	505.91403	-14.24502	1307.73547	-962.32001	
51	0.500	-800.58679	8.74421	-638.96100	769.66272	10.02445	-644.10291	-708.75458	7.97833	496.01682	733.43475	7.14682	505.92050	-14.16465	1307.70264	-962.34735	
52	0.510	-800.56329	8.68402	-639.00439	769.60852	10.01680	-644.15820	-708.76172	7.99256	496.01337	733.41821	7.14492	505.91287	-14.20687	1307.72900	-962.35925	
53	0.520	-800.59235	8.70461	-638.96570	769.59857	9.99736	-644.11884	-708.81995	7.99542	495.99890	733.41425	7.14540	505.91068	-14.18898	1307.73730	-962.35376	
54	0.530	-800.58527	8.75457	-638.95953	769.63800	10.00975	-644.12366	-708.75153	7.96492	495.97549	733.49414	7.16252	505.92181	-14.14729	1307.73840	-962.31232	
55	0.540	-800.58667	8.73245	-638.96722	769.61255	10.01935	-644.13910	-708.78528	7.97290	496.01385	733.39496	7.12677	505.92239	-14.22369	1307.70959	-962.35535	
56	0.550	-800.57330	8.73142	-638.97260	769.65845	10.03006	-644.13611	-708.76477	7.94971	495.97079	733.42456	7.14769	505.92554	-14.21441	1307.71545	-962.35175	
57	0.560	-800.58569	8.66737	-639.00824	769.62549	10.01746	-644.12854	-708.76184	7.95825	495.99475	733.40155	7.11347	505.89340	-14.26292	1307.70264	-962.32104	
58	0.570	-800.55566	8.67774	-639.00049	769.59766	9.99891	-644.11450	-708.77783	7.97600	495.99561	733.42273	7.13895	505.91669	-14.22888	1307.72913	-962.32489	
59	0.580	-800.55353	8.70743	-638.97729	769.68982	10.00777	-644.10730	-708.76556	7.98710	496.00882	733.43225	7.18017	505.89053	-14.22833	1307.72974	-962.31897	
60	0.590	-800.56110	8.71108	-638.94342	769.62653	10.00008	-644.10834	-708.76990	8.00695	496.01779	733.42096	7.12994	505.91125	-14.22006	1307.76147	-962.35040	
61	0.600	-800.58173	8.72848	-638.98553	769.50665	10.03889	-644.13354	-708.75323	7.95100	496.00253	733.44818	7.14672	505.87701	-14.24853	1307.74609	-962.32971	
62	0.610	-800.58008	8.70076	-639.00372	769.64252	10.00882	-644.11279	-708.76520	7.96570	496.00613	733.44379	7.15019	505.90857	-14.26069	1307.72095	-962.32867	
63	0.620	-800.54163	8.64660	-638.97327	769.49622	10.05870	-644.13422	-708.76013	7.97304	496.01770	733.44745	7.13267	505.91696	-14.17730	1307.72266	-962.34680	
64	0.630	-800.56470	8.75602	-638.96735	769.67535	10.03122	-644.08826	-708.73755	7.92886	496.00458	733.51324	7.15707	505.88092	-14.15837	1307.71704	-962.33447	
65	0.640	-800.54639	8.70761	-638.98639	769.50964	10.05882	-644.14148	-708.70959	7.96804	496.03009	733.49890	7.16944	505.88715	-14.17837	1307.73975	-962.34772	
66	0.650	-800.54254	8.64113	-639.00934	769.65045	10.01734	-644.11188	-708.75751	7.96837	495.98343	733.46808	7.17369	505.93164	-14.18879	1307.71350	-962.34161	
67	0.660	-800.57019	8.72032	-638.97815	769.65704	10.00858	-644.14136	-708.73767	7.99752	496.00885	733.55994	7.18389	505.90900	-14.19260	1307.72888	-962.34467	
68	0.670	-800.59833	8.71521	-638.94641	769.45575	10.01933	-644.20172	-708.74481	7.99301	496.01895	733.45129	7.11361	505.90430	-14.18791	1307.72449	-962.35840	
69	0.680	-800.58246	8.72160	-639.00104	769.65198	10.02005	-644.08643	-708.77637	7.97756	495.97552	733.50586	7.14765	505.89954	-14.18271	1307.73157	-962.36780	
70	0.690	-800.58478	8.74485	-638.96594	769.66626	10.02309	-644.11456	-708.75574	7.99362	496.01764	733.47894	7.16525	505.88632	-14.20022	1307.70618	-962.34967	
71	0.700	-800.53558	8.67414	-639.01233	769.52466	10.04749	-644.18542	-708.69391	7.95169	495.99368	733.48865	7.17082	505.89136	-14.17423	1307.74255	-962.36292	
72	0.710	-800.56848	8.69009	-638.92865	769.49023	10.06354	-644.15948	-708.74548	7.96533	496.02307	733.43097	7.14038	505.90817	-14.16940	1307.70129	-962.33148	
73	0.720	-800.53723	8.72514	-638.98920	769.65649	10.00880	-644.10352	-708.74561	7.94889	496.00119	733.45197	7.13344	505.88913	-14.21747	1307.72437	-962.34314	
74	0.730	-800.55981	8.67442	-639.00696	769.62506	10.00341	-644.09271	-708.77435	7.94777	495.97940	733.42395	7.16250	505.90686	-14.20418	1307.70862	-962.31708	
75	0.740	-800.50812	8.64482	-639.02228	769.66437	10.02799	-644.09308	-708.77747	8.00386	495.98285	733.42462	7.16102	505.90942	-14.19960	1307.73486	-962.36542	
